<?xml version="1.0"?>
<svg xmlns="http://www.w3.org/2000/svg" xmlns:xlink="http://www.w3.org/1999/xlink" version="1.1" id="Layer_1" x="0px" y="0px" viewBox="0 0 511.983 511.983" style="enable-background:new 0 0 511.983 511.983;" xml:space="preserve" width="512px" height="512px" class=""><g><g>
	<g>
		<g>
			<path d="M483.72,28.28c0-0.008,0-0.008,0-0.008c-0.016,0-0.016,0-0.016,0C460.346,4.906,438.143,0,423.628,0     c-11.405,0-18.78,3.039-19.577,3.391c-1.25,0.531-2.375,1.297-3.328,2.25l-279.14,279.146c-3.086,3.078-3.977,7.75-2.258,11.766     c0.117,0.25,7.758,18.219,12.695,38.154L3.134,463.594c-2,2-3.125,4.719-3.125,7.547s1.125,5.531,3.125,7.531l30.171,30.186     c2.086,2.094,4.82,3.125,7.546,3.125c2.734,0,5.461-1.031,7.547-3.125l129.051-129.057c20.007,5.217,37.616,12.701,37.991,12.857     c1.359,0.578,2.797,0.875,4.219,0.875c2.773,0,5.5-1.078,7.539-3.141l279.148-279.139c0.953-0.953,1.719-2.078,2.25-3.312     C509.266,106.379,524.64,69.209,483.72,28.28z M40.851,486.234L25.766,471.14l23.046-23.047h30.171L40.851,486.234z      M100.271,426.799c-0.344-0.031-0.695-0.047-1.055-0.047H70.147l21.335-21.328h30.179L100.271,426.799z M142.996,384.08h-30.171     l31.39-31.404l15.093,15.094L142.996,384.08z M171.769,350.05l-9.836-9.828l21.14-11.297L171.769,350.05z M489.501,97.934     l-272.39,272.398c-6.14-2.406-15.898-5.969-27.069-9.188l28.437-53.186l0.008-0.016c0.164-0.328,0.32-0.641,0.453-0.969     c0.07-0.172,0.117-0.328,0.18-0.516c0.055-0.156,0.117-0.297,0.164-0.453c0.07-0.234,0.125-0.484,0.18-0.719     c0.023-0.094,0.055-0.188,0.07-0.297c0.047-0.219,0.078-0.438,0.102-0.672c0.016-0.109,0.039-0.234,0.055-0.359     c0.016-0.188,0.023-0.375,0.031-0.578c0.008-0.141,0.016-0.297,0.016-0.453s-0.008-0.312-0.016-0.469     c-0.008-0.188-0.016-0.391-0.031-0.594c-0.016-0.109-0.039-0.219-0.055-0.344c-0.023-0.219-0.055-0.453-0.102-0.688     c-0.016-0.094-0.047-0.188-0.07-0.281c-0.055-0.25-0.109-0.469-0.18-0.719c-0.047-0.156-0.102-0.281-0.156-0.438     c-0.062-0.188-0.117-0.359-0.188-0.531c-0.133-0.328-0.289-0.656-0.453-0.969h-0.008c-0.023-0.047-0.047-0.094-0.07-0.125     c-0.148-0.266-0.305-0.531-0.469-0.781c-0.07-0.094-0.141-0.188-0.203-0.281c-0.141-0.188-0.273-0.375-0.422-0.562     c-0.102-0.125-0.211-0.234-0.312-0.344c-0.125-0.156-0.25-0.281-0.391-0.438c-0.133-0.125-0.281-0.25-0.422-0.375     c-0.117-0.109-0.227-0.219-0.344-0.312c-0.188-0.156-0.375-0.281-0.57-0.422c-0.094-0.078-0.18-0.141-0.273-0.203     c-0.25-0.156-0.516-0.312-0.781-0.469c-0.039-0.031-0.078-0.047-0.117-0.062c0,0-0.008-0.016-0.016-0.016     c-0.312-0.172-0.633-0.328-0.961-0.453c-0.172-0.062-0.344-0.125-0.516-0.188c-0.156-0.062-0.305-0.109-0.461-0.156     c-0.234-0.062-0.469-0.125-0.703-0.188c-0.102-0.016-0.195-0.047-0.297-0.062c-0.226-0.047-0.445-0.062-0.664-0.094     c-0.125-0.031-0.25-0.047-0.367-0.062c-0.188-0.016-0.375-0.031-0.57-0.031c-0.156,0-0.32-0.016-0.484-0.016     c-0.141,0-0.289,0.016-0.438,0.016c-0.203,0-0.406,0.016-0.609,0.031c-0.102,0.016-0.203,0.031-0.312,0.047     c-0.242,0.031-0.484,0.062-0.719,0.109c-0.078,0.016-0.148,0.031-0.227,0.062c-0.258,0.047-0.523,0.109-0.781,0.188     c-0.086,0.031-0.18,0.062-0.273,0.094c-0.234,0.078-0.469,0.156-0.695,0.25c-0.328,0.125-0.648,0.281-0.953,0.453l-0.016,0.016     l-53.319,28.498c-3.125-11.154-6.671-20.967-9.062-27.123l272.373-272.38c1.858-0.5,5.187-1.18,9.593-1.18     c8.922,0,22.094,2.781,37.062,14.875L257.399,239.508c-4.172,4.164-4.172,10.922,0,15.086c2.078,2.086,4.812,3.125,7.539,3.125     c2.734,0,5.461-1.039,7.539-3.125L475.783,51.295C494.063,73.911,491.032,92.372,489.501,97.934z" data-original="#000000" class="active-path" data-old_color="#FDFAFA" fill="#FFFBFB"/>
			<path d="M405.535,341.394c-17.093,0-33.171,6.656-45.265,18.75c-12.077,12.094-18.749,28.17-18.749,45.279     c0,17.094,6.672,33.156,18.749,45.248c12.094,12.094,28.172,18.75,45.265,18.75c17.108,0,33.187-6.656,45.265-18.75     c12.093-12.092,18.749-28.154,18.749-45.248c0-17.109-6.656-33.186-18.749-45.279     C438.721,348.051,422.643,341.394,405.535,341.394z M435.721,435.595c-8.062,8.047-18.781,12.498-30.187,12.498     c-7.78,0-15.233-2.078-21.765-5.951c3.266-4.188,2.984-10.25-0.859-14.094c-3.859-3.844-9.906-4.125-14.094-0.875     c-3.875-6.5-5.953-13.969-5.953-21.75c0-11.406,4.438-22.125,12.5-30.186c8.062-8.062,18.781-12.5,30.171-12.5     c7.781,0,15.249,2.078,21.765,5.953c-3.266,4.188-2.984,10.234,0.875,14.094c2.078,2.076,4.812,3.123,7.547,3.123     c2.312,0,4.625-0.766,6.547-2.266c3.875,6.531,5.953,14,5.953,21.781C448.221,416.814,443.784,427.533,435.721,435.595z" data-original="#000000" class="active-path" data-old_color="#FDFAFA" fill="#FFFBFB"/>
			<path d="M404.035,391.83l-12.077,12.078c-4.156,4.172-4.156,10.922,0,15.078c2.094,2.094,4.812,3.125,7.546,3.125     c2.734,0,5.469-1.031,7.547-3.125l12.062-12.062c4.172-4.156,4.172-10.922,0-15.094     C414.956,387.674,408.191,387.674,404.035,391.83z" data-original="#000000" class="active-path" data-old_color="#FDFAFA" fill="#FFFBFB"/>
		</g>
	</g>
</g></g> </svg>
