<?xml version="1.0"?>
<svg xmlns="http://www.w3.org/2000/svg" xmlns:xlink="http://www.w3.org/1999/xlink" version="1.1" id="Capa_1" x="0px" y="0px" viewBox="0 0 480.963 480.963" style="enable-background:new 0 0 480.963 480.963;" xml:space="preserve" width="512px" height="512px" class=""><g><g>
	<g>
		<path d="M418.86,2.922c-5.955-1.368-12.047-2.05-18.157-2.031c-44.134-0.048-79.951,35.691-79.999,79.825    c-0.02,18.263,6.217,35.983,17.671,50.207c-11.626-2.709-23.718-2.709-35.344,0c27.698-34.423,22.247-84.782-12.176-112.48    c-34.423-27.698-84.782-22.247-112.48,12.176c-11.172,13.884-17.037,30.568-17.615,47.397    c-0.706-22.633-10.892-44.834-29.91-60.152C96.266-9.994,45.648-4.541,17.791,30.044c-27.857,34.584-22.404,85.203,12.181,113.06    c19.184,15.453,44.393,21.259,68.404,15.755c-27.715,34.301-22.376,84.576,11.926,112.291    c19.075,15.412,44.174,21.204,68.074,15.709c-27.698,34.423-22.247,84.782,12.176,112.48    c34.423,27.698,84.782,22.247,112.48-12.176c23.563-29.283,23.563-71.021,0-100.304c43.013,9.824,85.846-17.081,95.671-60.094    c5.445-23.841-0.329-48.862-15.671-67.906c43.061,9.894,85.989-16.993,95.883-60.054C488.808,55.744,461.921,12.816,418.86,2.922z     M400.703,16.891c17.421,0.005,34.082,7.135,46.112,19.736c-30.483,5.632-61.741,5.632-92.224,0    C366.621,24.026,383.282,16.895,400.703,16.891z M364.703,162.514c0.721,0.688,1.425,1.392,2.112,2.112    c-30.483,5.632-61.741,5.632-92.224,0C298.891,139.16,339.236,138.214,364.703,162.514z M240.703,16.891c35.346,0,64,28.654,64,64    c0,35.346-28.654,64-64,64c-35.346,0-64-28.654-64-64C176.743,45.561,205.373,16.93,240.703,16.891z M240.704,208.917    c-0.001,18.199,6.235,35.848,17.671,50.006c-11.626-2.709-23.718-2.709-35.344,0C234.807,244.334,240.698,226.626,240.704,208.917    z M240.704,208.865c-0.006-17.709-5.896-35.417-17.673-50.006c11.626,2.709,23.718,2.709,35.344,0    C246.939,173.016,240.702,190.666,240.704,208.865z M178.375,130.923c-11.626-2.709-23.718-2.709-35.344,0    c11.286-14.011,17.101-30.654,17.73-47.349C161.349,100.386,167.214,117.052,178.375,130.923z M80.703,16.891    c17.421,0.005,34.082,7.135,46.112,19.736c-30.483,5.632-61.741,5.632-92.224,0C46.621,24.026,63.282,16.895,80.703,16.891z     M24.279,111.035c-4.981-9.266-7.584-19.624-7.576-30.144c-0.008-10.517,2.593-20.871,7.568-30.136    c18.541,4.035,37.457,6.092,56.432,6.136c18.975-0.044,37.891-2.101,56.432-6.136c10.091,18.826,10.091,41.454,0,60.28    C99.939,103.059,61.475,103.059,24.279,111.035z M36.703,127.267c-0.721-0.688-1.425-1.392-2.112-2.112    c30.483-5.632,61.741-5.632,92.224,0C102.515,150.622,62.17,151.568,36.703,127.267z M160.703,272.891    c-35.33-0.04-63.96-28.67-64-64c0-35.346,28.654-64,64-64c35.346,0,64,28.654,64,64    C224.703,244.237,196.049,272.891,160.703,272.891z M304.703,336.891c-0.04,35.33-28.67,63.96-64,64c-35.346,0-64-28.654-64-64    c0-35.346,28.654-64,64-64C276.049,272.891,304.703,301.545,304.703,336.891z M320.703,272.891    c-17.421-0.005-34.082-7.135-46.112-19.736c30.483-5.632,61.741-5.632,92.224,0C354.785,265.755,338.124,272.886,320.703,272.891z     M377.135,239.035c-37.196-7.976-75.66-7.976-112.856,0c-4.981-9.266-7.584-19.624-7.576-30.144    c-0.008-10.517,2.593-20.871,7.568-30.136c18.541,4.035,37.457,6.092,56.432,6.136c18.975-0.044,37.891-2.101,56.432-6.136    C387.226,197.581,387.226,220.208,377.135,239.035z M400.703,144.891c-17.421-0.005-34.082-7.135-46.112-19.736    c30.483-5.632,61.741-5.632,92.224,0C434.785,137.755,418.124,144.886,400.703,144.891z M457.135,111.035    c-37.196-7.976-75.66-7.976-112.856,0c-10.097-18.825-10.097-41.455,0-60.28c18.538,4.035,37.452,6.092,56.424,6.136    c18.975-0.044,37.891-2.101,56.432-6.136c4.975,9.265,7.576,19.619,7.568,30.136C464.71,91.41,462.11,101.766,457.135,111.035z" data-original="#000000" class="active-path" data-old_color="#d0a44d" fill="#d0a44d"/>
	</g>
</g><g>
	<g>
		<path d="M480.703,448.891v-16h-456c-13.255,0-24,10.745-24,24s10.745,24,24,24h456v-16h-384v-16H480.703z M32.703,464.891h-8    c-4.418,0-8-3.582-8-8s3.582-8,8-8h8V464.891z M80.703,464.891h-32v-16h32V464.891z" data-original="#000000" class="active-path" data-old_color="#d0a44d" fill="#d0a44d"/>
	</g>
</g></g> </svg>
